<svg width="334" height="433" viewBox="0 0 334 433" fill="none" xmlns="http://www.w3.org/2000/svg">
<path d="M203.706 168.372C168.889 231.129 150.226 283.696 150.226 283.696C109.943 211.674 39.7035 184.586 39.7035 184.586C98.6121 182.414 141.351 213.698 141.351 213.698C181.169 140.491 244.943 67.7021 290.795 42.748C290.795 42.748 237.05 108.27 203.706 168.372Z" fill="url(#paint0_linear_2032_773)"/>
<path d="M329.168 136.298C325.01 119.441 318.223 103.226 309.155 88.3856L299.783 94.2203C308.447 107.978 315.013 123.069 319.133 138.831C323.204 154.59 324.838 170.998 323.986 187.3C322.287 219.802 310.279 252.304 289.834 277.711C284.719 284.118 279.177 290.196 273.159 295.785C267.113 301.339 260.667 306.457 253.88 311.092L248.714 314.455C208.07 340.916 157.388 343.78 111.952 329.842C109.974 329.235 108.06 328.451 106.129 327.71C92.5892 322.479 79.8614 315.398 68.1692 306.804C61.5127 301.86 55.2771 296.36 49.4272 290.48C31.7782 272.738 18.9503 250.784 10.7958 227.219C8.25386 219.296 6.24042 211.196 4.87697 202.973C3.59976 194.738 2.88009 186.418 2.75934 178.073C2.62271 161.388 5.03153 144.666 9.96507 128.692C14.8862 112.716 22.3169 97.4999 31.8907 83.7515C41.4584 69.9983 53.1609 57.712 66.4635 47.4668C71.5606 43.5379 76.8943 39.9126 82.424 36.6096C104.766 24.0542 124.084 18.8447 129.936 19.3511C129.936 19.3511 98.3377 28.591 78.747 47.7125C78.747 47.7125 88.5975 62.9526 108.159 59.2818C131.233 54.9555 133.717 31.1364 164.519 17.9987C164.519 17.9987 142.211 -4.047 112.768 0.658842C95.2906 3.45337 75.1424 19.2338 74.4179 38.1814C74.3744 39.1557 74.4013 40.0969 74.4821 41.009C71.6109 42.8907 68.795 44.8579 66.0467 46.9176C52.5488 57.022 40.6014 69.2193 30.7639 82.9552C20.921 96.6857 13.1964 111.957 7.99166 128.069C2.77452 144.177 0.0924609 161.114 0 178.077C0.00621006 186.561 0.621697 195.041 1.80989 203.45C3.08433 211.849 5.02394 220.14 7.51072 228.269C14.8013 252.099 28.5918 275.524 46.2139 293.607C52.1141 299.704 58.4208 305.424 65.1697 310.589C78.5862 320.858 93.9775 329.835 110.127 335.051C159.962 351.148 213.683 345.457 258.089 317.408C265.263 312.654 272.093 307.381 278.516 301.639C284.91 295.862 290.822 289.56 296.29 282.896C301.787 276.247 306.655 269.088 311.02 261.644C313.267 257.955 315.191 254.084 317.158 250.24C326.736 231.522 331.874 209.082 333.627 187.908C334.771 170.637 333.282 153.168 329.168 136.298Z" fill="url(#paint1_linear_2032_773)"/>
<path d="M119.307 424V405.424H111.531V398.8H135.075V405.424H127.083V424H119.307ZM150.109 424.36C148.117 424.36 146.293 424.036 144.637 423.388C142.981 422.74 141.541 421.828 140.317 420.652C139.093 419.476 138.145 418.084 137.473 416.476C136.825 414.868 136.501 413.116 136.501 411.22C136.501 409.3 136.825 407.548 137.473 405.964C138.145 404.356 139.093 402.964 140.317 401.788C141.541 400.612 142.981 399.7 144.637 399.052C146.293 398.404 148.105 398.08 150.073 398.08C152.065 398.08 153.877 398.404 155.509 399.052C157.165 399.7 158.605 400.612 159.829 401.788C161.053 402.964 161.989 404.356 162.637 405.964C163.309 407.548 163.645 409.288 163.645 411.184C163.645 413.104 163.309 414.868 162.637 416.476C161.989 418.084 161.053 419.476 159.829 420.652C158.605 421.828 157.165 422.74 155.509 423.388C153.877 424.036 152.077 424.36 150.109 424.36ZM150.073 417.16C150.889 417.16 151.633 417.016 152.305 416.728C153.001 416.44 153.601 416.032 154.105 415.504C154.633 414.952 155.029 414.316 155.293 413.596C155.581 412.876 155.725 412.084 155.725 411.22C155.725 410.356 155.581 409.564 155.293 408.844C155.029 408.124 154.633 407.5 154.105 406.972C153.601 406.42 153.001 406 152.305 405.712C151.633 405.424 150.889 405.28 150.073 405.28C149.257 405.28 148.501 405.424 147.805 405.712C147.133 406 146.533 406.42 146.005 406.972C145.501 407.5 145.105 408.124 144.817 408.844C144.553 409.564 144.421 410.356 144.421 411.22C144.421 412.084 144.553 412.876 144.817 413.596C145.105 414.316 145.501 414.952 146.005 415.504C146.533 416.032 147.133 416.44 147.805 416.728C148.501 417.016 149.257 417.16 150.073 417.16ZM167.964 424V398.8H179.052C180.948 398.8 182.688 399.112 184.272 399.736C185.856 400.36 187.236 401.236 188.412 402.364C189.588 403.468 190.488 404.788 191.112 406.324C191.76 407.86 192.084 409.552 192.084 411.4C192.084 413.224 191.76 414.916 191.112 416.476C190.488 418.012 189.588 419.344 188.412 420.472C187.236 421.576 185.856 422.44 184.272 423.064C182.688 423.688 180.948 424 179.052 424H167.964ZM175.74 419.212L174.408 417.376H178.872C179.664 417.376 180.384 417.232 181.032 416.944C181.68 416.632 182.244 416.212 182.724 415.684C183.204 415.156 183.576 414.532 183.84 413.812C184.104 413.068 184.236 412.264 184.236 411.4C184.236 410.536 184.104 409.744 183.84 409.024C183.576 408.28 183.204 407.644 182.724 407.116C182.244 406.588 181.68 406.18 181.032 405.892C180.384 405.58 179.664 405.424 178.872 405.424H174.3L175.74 403.66V419.212ZM208.573 424.36C206.581 424.36 204.757 424.036 203.101 423.388C201.445 422.74 200.005 421.828 198.781 420.652C197.557 419.476 196.609 418.084 195.937 416.476C195.289 414.868 194.965 413.116 194.965 411.22C194.965 409.3 195.289 407.548 195.937 405.964C196.609 404.356 197.557 402.964 198.781 401.788C200.005 400.612 201.445 399.7 203.101 399.052C204.757 398.404 206.569 398.08 208.537 398.08C210.529 398.08 212.341 398.404 213.973 399.052C215.629 399.7 217.069 400.612 218.293 401.788C219.517 402.964 220.453 404.356 221.101 405.964C221.773 407.548 222.109 409.288 222.109 411.184C222.109 413.104 221.773 414.868 221.101 416.476C220.453 418.084 219.517 419.476 218.293 420.652C217.069 421.828 215.629 422.74 213.973 423.388C212.341 424.036 210.541 424.36 208.573 424.36ZM208.537 417.16C209.353 417.16 210.097 417.016 210.769 416.728C211.465 416.44 212.065 416.032 212.569 415.504C213.097 414.952 213.493 414.316 213.757 413.596C214.045 412.876 214.189 412.084 214.189 411.22C214.189 410.356 214.045 409.564 213.757 408.844C213.493 408.124 213.097 407.5 212.569 406.972C212.065 406.42 211.465 406 210.769 405.712C210.097 405.424 209.353 405.28 208.537 405.28C207.721 405.28 206.965 405.424 206.269 405.712C205.597 406 204.997 406.42 204.469 406.972C203.965 407.5 203.569 408.124 203.281 408.844C203.017 409.564 202.885 410.356 202.885 411.22C202.885 412.084 203.017 412.876 203.281 413.596C203.569 414.316 203.965 414.952 204.469 415.504C204.997 416.032 205.597 416.44 206.269 416.728C206.965 417.016 207.721 417.16 208.537 417.16Z" fill="#149954"/>
<defs>
<linearGradient id="paint0_linear_2032_773" x1="39.7032" y1="163.222" x2="290.795" y2="163.222" gradientUnits="userSpaceOnUse">
<stop stop-color="#4FC646"/>
<stop offset="1" stop-color="#3FB06B"/>
</linearGradient>
<linearGradient id="paint1_linear_2032_773" x1="1.29783" y1="157.756" x2="333.279" y2="191.689" gradientUnits="userSpaceOnUse">
<stop stop-color="#4FC646"/>
<stop offset="1" stop-color="#3FB06B"/>
</linearGradient>
</defs>
</svg>
