<svg width="19" height="21" viewBox="0 0 19 21" fill="none" xmlns="http://www.w3.org/2000/svg">
<path d="M11.875 14.25C11.875 14.6644 11.6093 15 11.2812 15H7.71875C7.3907 15 7.125 14.6644 7.125 14.25V12H0V18.75C0 19.95 0.83125 21 1.78125 21H17.2188C18.1688 21 19 19.95 19 18.75V12H11.875V14.25ZM17.2188 4.5H14.25V2.25C14.25 1.05 13.4187 0 12.4688 0H6.53125C5.58125 0 4.75 1.05 4.75 2.25V4.5H1.78125C0.83125 4.5 0 5.55 0 6.75V10.5H19V6.75C19 5.55 18.1688 4.5 17.2188 4.5ZM11.875 4.5H7.125V3H11.875V4.5Z" fill="white"/>
</svg>
